<svg width="127" height="30" viewBox="0 0 127 30" fill="none" xmlns="http://www.w3.org/2000/svg">
<g clip-path="url(#clip0_28_83)">
<path d="M0.763619 11.5195C7.88694 17.5837 38.8787 23.6199 59.7244 23.2411C82.2564 22.862 94.5954 20.2102 118.617 10.4594C118.548 11.527 118.336 12.3958 118.37 13.1883C118.346 14.0925 118.335 15.0485 118.656 15.92C118.725 16.1787 119.629 16.5707 120.162 16.5734C120.696 16.576 121.465 16.132 121.569 15.8569C122.463 13.2259 123.185 10.6112 123.979 7.93663C124.191 7.06781 123.505 6.49598 121.964 6.37637C116.116 6.08035 110.254 5.73259 104.333 5.49651C102.993 5.46402 101.49 5.81829 99.7582 5.98195C101.738 8.07603 104.785 7.52272 107.188 7.87915C109.692 8.27914 112.299 8.40404 115.495 8.73857C109.084 12.3154 102.296 14.8139 94.8949 16.6805C67.8062 23.5912 40.8946 22.5275 14.3979 15.3767C10.9495 14.4295 7.70553 13.2507 4.32988 12.2435C3.30846 12.0747 2.3736 11.8979 0.763619 11.5195Z" fill="#DF6951"/>
</g>
<defs>
<clipPath id="clip0_28_83">
<rect width="121.802" height="18.1302" fill="white" transform="matrix(0.995562 -0.0941035 -0.258138 -0.966108 5.44336 29.0353)"/>
</clipPath>
</defs>
</svg>
